<?xml version="1.0" encoding="UTF-8" standalone="no"?>
<!-- Created with Inkscape (http://www.inkscape.org/) -->

<svg
   width="96"
   height="96"
   viewBox="0 0 25.399999 25.400001"
   version="1.1"
   id="svg19"
   xmlns="http://www.w3.org/2000/svg"
   xmlns:svg="http://www.w3.org/2000/svg">
  <defs
     id="defs16" />
  <g
     id="layer1">
    <path
       d="m 13.072423,23.6248 q 2.316383,0 4.339362,-0.8546 2.022976,-0.8546 3.520903,-2.308919 1.497927,-1.454317 2.378156,-3.418398 0.880228,-1.96408 0.880228,-4.213023 0,-2.248948 -0.880228,-4.2130269 Q 22.430615,6.6527506 20.932688,5.1984333 19.434761,3.7441162 17.411785,2.8895147 15.388806,2.0349181 13.072423,2.0349181 q -2.532583,0 -4.8026392,1.0495066 -2.270058,1.0495059 -3.845204,2.9686097 V 3.2343546 h -2.470806 v 7.1966264 h 7.412433 V 8.0321048 h -3.397369 q 1.266291,-1.6792101 3.1194,-2.6387621 1.8531072,-0.9595519 3.9841852,-0.9595519 3.61356,0 6.130695,2.4438571 2.517142,2.4438526 2.517142,5.9522121 0,3.508355 -2.517142,5.952208 -2.517135,2.443854 -6.130695,2.443854 -3.2429442,0 -5.6674202,-2.039044 -2.424488,-2.039043 -2.856879,-5.157583 h -2.532581 q 0.463286,4.108076 3.629002,6.85179 3.165727,2.743715 7.4278782,2.743715 z M 9.6132838,17.867497 14.307828,13.309634 V 6.8326683 H 11.837014 V 12.35008 l -3.9532932,3.838204 z"
       id="path23"
       style="stroke-width:0.0304321" />
    <path
       d="m 23.632936,22.761511 h -0.566672 l -3.88717,-3.88717 0.566672,-0.566672 3.88717,3.887171 z m 0.795329,0.795329 v -1.690074 l -5.249171,-5.239229 q -0.1193,-0.109356 -0.263453,-0.169008 -0.144153,-0.05965 -0.303219,-0.05965 -0.159066,0 -0.30819,0.05965 -0.149124,0.05965 -0.258482,0.178949 l -0.546789,0.556729 q -0.119307,0.109356 -0.173978,0.258482 -0.05468,0.149126 -0.05468,0.29825 0,0.159065 0.05468,0.30322 0.05468,0.144151 0.173978,0.263452 l 5.23923,5.239229 z m -6.362632,-5.805901 0.55673,-0.556732 z m 1.401768,0.845036 0.278365,-0.288306 -0.566672,0.566672 z"
       id="path701"
       style="fill:#6ba13f;fill-opacity:1;stroke-width:0.0099416" />
  </g>
</svg>
